<svg width="24" height="24" viewBox="0 0 24 24" fill="none" xmlns="http://www.w3.org/2000/svg">
<path d="M11.5 1C9.51088 1 7.60322 1.81125 6.1967 3.25528C4.79018 4.69931 4 6.65783 4 8.7C4 11.318 5.275 13.617 7.21429 15.014V17.5C7.21429 17.7917 7.32717 18.0715 7.5281 18.2778C7.72903 18.4841 8.00155 18.6 8.28571 18.6H14.7143C14.9984 18.6 15.271 18.4841 15.4719 18.2778C15.6728 18.0715 15.7857 17.7917 15.7857 17.5V15.014C17.725 13.617 19 11.318 19 8.7C19 6.65783 18.2098 4.69931 16.8033 3.25528C15.3968 1.81125 13.4891 1 11.5 1V1ZM8.28571 21.9C8.28571 22.1917 8.3986 22.4715 8.59953 22.6778C8.80046 22.8841 9.07298 23 9.35714 23H13.6429C13.927 23 14.1995 22.8841 14.4005 22.6778C14.6014 22.4715 14.7143 22.1917 14.7143 21.9V20.8H8.28571V21.9Z" fill="white"/>
</svg>
