<svg width="24" height="24" viewBox="0 0 24 24" fill="none" xmlns="http://www.w3.org/2000/svg">
<g clip-path="url(#clip0_77_1310)">
<mask id="mask0_77_1310" style="mask-type:alpha" maskUnits="userSpaceOnUse" x="0" y="0" width="24" height="24">
<path fill-rule="evenodd" clip-rule="evenodd" d="M12.6429 6.5H8V6C8 3.79086 9.79086 2 12 2H18C20.2091 2 22 3.79086 22 6V12C22 14.2091 20.2091 16 18 16H17.5V11.3571C17.5 8.67462 15.3254 6.5 12.6429 6.5ZM12 22H6C3.79086 22 2 20.2091 2 18V12C2 9.79086 3.79086 8 6 8H12C14.2091 8 16 9.79086 16 12V18C16 20.2091 14.2091 22 12 22Z" fill="#1F2F38"/>
</mask>
<g mask="url(#mask0_77_1310)">
<rect width="24" height="24" fill="#97A6AC"/>
</g>
</g>
<defs>
<clipPath id="clip0_77_1310">
<rect width="24" height="24" fill="white"/>
</clipPath>
</defs>
</svg>
